<svg class="align-middle" width="32" height="32" viewBox="0 0 32 32" fill="none"><path id="Union" fill-rule="evenodd" clip-rule="evenodd" d="M6.58823 0C2.94965 0 0 2.94965 0 6.58824V25.4118C0 29.0503 2.94965 32 6.58824 32H25.4118C29.0503 32 32 29.0503 32 25.4118V6.58823C32 2.94965 29.0503 0 25.4118 0H6.58823ZM6.43134 3.76899C6.48328 3.76615 6.53559 3.76471 6.58823 3.76471H25.4118C26.9712 3.76471 28.2353 5.02884 28.2353 6.58823V25.4118C28.2353 25.4644 28.2339 25.5168 28.231 25.5687L24.3901 21.7278C23.655 20.9927 22.4631 20.9927 21.728 21.7278C20.9929 22.4629 20.9929 23.6547 21.728 24.3898L25.5692 28.231C25.5171 28.2338 25.4646 28.2353 25.4118 28.2353H6.58824C5.02884 28.2353 3.76471 26.9712 3.76471 25.4118V6.58824C3.76471 6.5354 3.76616 6.48289 3.76902 6.43077L7.61058 10.2723C8.34568 11.0074 9.53752 11.0074 10.2726 10.2723C11.0077 9.53722 11.0077 8.34538 10.2726 7.61028L6.43134 3.76899ZM12.7088 12.7085C13.4439 11.9734 14.6357 11.9734 15.3708 12.7085L19.2924 16.63C20.0275 17.3652 20.0275 18.557 19.2924 19.2921C18.5573 20.0272 17.3655 20.0272 16.6303 19.2921L12.7088 15.3705C11.9737 14.6354 11.9737 13.4436 12.7088 12.7085Z" fill="#FA4E18"></path></svg>