<svg xml:space="preserve" style="max-height: 500px" viewBox="0 0 25.272 25.350467289719624" y="0px" x="0px" xmlns:xlink="http://www.w3.org/1999/xlink" xmlns="http://www.w3.org/2000/svg" id="Layer_1" version="1.1" width="25.272" height="25.350467289719624">
<style type="text/css">
	.st0{fill:#4D87E2;}
	.st1{fill:#FFFFFF;}
</style>
<path d="M0,20V5c0-0.33,0.03-0.65,0.1-0.98C0.16,3.7,0.25,3.39,0.38,3.09c0.13-0.3,0.28-0.59,0.46-0.86&#10;&#9;C1.03,1.95,1.23,1.7,1.46,1.46C1.7,1.23,1.95,1.03,2.22,0.84s0.56-0.34,0.86-0.46S3.7,0.16,4.02,0.1S4.67,0,5,0h15&#10;&#9;c0.33,0,0.65,0.03,0.98,0.1c0.32,0.06,0.63,0.16,0.94,0.28s0.59,0.28,0.86,0.46c0.27,0.18,0.53,0.39,0.76,0.62&#10;&#9;c0.23,0.23,0.44,0.48,0.62,0.76c0.18,0.27,0.34,0.56,0.46,0.86c0.13,0.3,0.22,0.62,0.28,0.94C24.97,4.35,25,4.67,25,5v15&#10;&#9;c0,0.33-0.03,0.65-0.1,0.98c-0.06,0.32-0.16,0.63-0.28,0.94s-0.28,0.59-0.46,0.86c-0.18,0.27-0.39,0.53-0.62,0.76&#10;&#9;c-0.23,0.23-0.48,0.44-0.76,0.62c-0.27,0.18-0.56,0.34-0.86,0.46c-0.3,0.13-0.62,0.22-0.94,0.28C20.65,24.97,20.33,25,20,25H5&#10;&#9;c-0.33,0-0.65-0.03-0.98-0.1s-0.63-0.16-0.94-0.28s-0.59-0.28-0.86-0.46c-0.27-0.18-0.53-0.39-0.76-0.62&#10;&#9;c-0.23-0.23-0.44-0.48-0.62-0.76c-0.18-0.27-0.34-0.56-0.46-0.86S0.16,21.3,0.1,20.98C0.03,20.65,0,20.33,0,20z" class="st0"/>
<path d="M16.77,10.45c-0.63,0.69-1.71,0.69-2.34,0c-0.54-0.59-0.54-1.51,0-2.1c0.63-0.69,1.71-0.69,2.34,0&#10;&#9;C17.31,8.94,17.31,9.86,16.77,10.45z M18.06,6.89c-1.9-1.86-4.94-1.85-6.83,0.03c-1.53,1.52-1.82,3.8-0.89,5.62&#10;&#9;c0.03,0.07,0.02,0.16-0.03,0.21l-4.75,4.74c-0.03,0.03-0.05,0.08-0.05,0.13v1.7c0,0.1,0.08,0.18,0.18,0.18h1.71&#10;&#9;c0.05,0,0.09-0.02,0.13-0.05l1.44-1.43c0.03-0.03,0.08-0.05,0.13-0.05h1.9c0.2,0,0.37-0.16,0.37-0.37v-1.9&#10;&#9;c0-0.05,0.02-0.09,0.05-0.13l0.87-0.87c0.06-0.06,0.14-0.07,0.21-0.03c1.82,0.91,4.09,0.61,5.6-0.9&#10;&#9;C19.98,11.87,19.97,8.76,18.06,6.89z" class="st1"/>
<path d="M39.84,12.32c1.45,0,2.3-0.93,2.3-2.36c0-1.41-0.84-2.32-2.26-2.32H37.5v4.68H39.84z M35.01,5.5h5.3&#10;&#9;c2.57,0,4.37,1.81,4.36,4.47c0,2.67-1.81,4.53-4.37,4.53h-2.8v4.74H35L35.01,5.5z"/>
<path d="M49.21,17.59c1.37,0,2.26-1.4,2.26-2.59v-0.27h-0.42c-1.24,0-3.33,0.18-3.33,1.56C47.72,16.96,48.21,17.59,49.21,17.59z&#10;&#9; M51.03,13.05h0.42v-0.14c0-1.29-0.83-1.74-1.85-1.74c-0.96,0-1.96,0.41-2.74,0.95l-0.9-1.76c0.81-0.66,2.4-1.22,3.87-1.22&#10;&#9;c2.57,0,4.09,1.43,4.09,3.93v6.17h-2.29v-0.83c0-0.41,0.06-0.72,0.06-0.72h-0.04c-0.6,1.04-1.78,1.78-3.12,1.78&#10;&#9;c-1.78,0-3.25-1.16-3.25-2.95C45.28,13.54,48.84,13.05,51.03,13.05z"/>
<path d="M56.29,16.39c0.74,0.68,1.82,1.08,2.8,1.08c0.87,0,1.37-0.36,1.37-0.98c0-1.55-4.89-1.16-4.89-4.4&#10;&#9;c0-1.93,1.7-2.95,3.78-2.95c1.18,0,2.42,0.33,3.33,1.13l-0.91,1.72c-0.57-0.49-1.62-0.84-2.49-0.84c-0.86,0-1.37,0.33-1.37,0.95&#10;&#9;c0,1.57,4.89,1.13,4.89,4.35c0,1.74-1.47,3.04-3.73,3.04c-1.37,0-2.84-0.47-3.87-1.45L56.29,16.39z"/>
<path d="M64.74,16.4c0.74,0.68,1.82,1.08,2.8,1.08c0.87,0,1.37-0.36,1.37-0.98c0-1.55-4.89-1.16-4.89-4.4c0-1.93,1.7-2.95,3.78-2.95&#10;&#9;c1.18,0,2.42,0.33,3.33,1.13L70.21,12c-0.59-0.5-1.63-0.86-2.5-0.86c-0.86,0-1.37,0.33-1.37,0.95c0,1.57,4.89,1.13,4.89,4.35&#10;&#9;c0,1.74-1.47,3.04-3.73,3.04c-1.37,0-2.84-0.47-3.87-1.45L64.74,16.4z"/>
<path d="M71.93,9.39h2.59l1.71,6.47c0.14,0.53,0.19,1.04,0.19,1.04h0.04c0,0,0.09-0.53,0.23-1.04l1.82-6.46h2.18l1.82,6.46&#10;&#9;c0.14,0.53,0.21,1.04,0.21,1.04h0.04c0,0,0.06-0.53,0.21-1.04l1.72-6.47h2.56l-3,9.86h-2.72l-1.65-5.63&#10;&#9;c-0.15-0.53-0.25-1.07-0.25-1.07h-0.04c0,0-0.09,0.54-0.23,1.07l-1.69,5.63h-2.74L71.93,9.39z"/>
<path d="M92.98,17.4c1.61,0,2.94-1.23,2.94-3.07c0-1.82-1.34-3.07-2.93-3.07c-1.61,0-2.92,1.25-2.92,3.07&#10;&#9;C90.06,16.17,91.38,17.4,92.98,17.4z M92.96,9.17c3.01,0,5.43,2.15,5.43,5.17c0,3.04-2.42,5.16-5.42,5.16c-3,0-5.42-2.13-5.41-5.17&#10;&#9;C87.56,11.32,89.99,9.17,92.96,9.17z"/>
<path d="M99.91,9.4h2.36v1.74c0,0.36-0.04,0.68-0.04,0.68h0.04c0.45-1.4,1.64-2.56,3.13-2.54c0.15,0,0.3,0.02,0.47,0.04v2.42&#10;&#9;c-0.09-0.02-0.39-0.04-0.6-0.04c-2,0-2.9,1.74-2.91,3.6v3.99h-2.45V9.4z"/>
<polygon points="107.38,5.55 109.83,5.55 109.83,12.9 111.05,12.9 113.43,9.42 116.15,9.42 113.03,13.83 113.03,13.86 116.53,19.28 &#10;&#9;113.7,19.28 111.1,14.96 109.82,14.96 109.82,19.28 107.37,19.28"/>
</svg>