<svg width="1200" height="1200" viewBox="0 0 1200 1200" fill="none" xmlns="http://www.w3.org/2000/svg">
<rect width="1200" height="1200" fill="#0D5C54"/>
<path fill-rule="evenodd" clip-rule="evenodd" d="M414 846C388.447 846 366 823.184 366 798V402C365.985 376.772 388.433 354 414 354H786C811.567 354 834 376.786 834 402C834 433.007 811.567 455.793 786 456H468V744H732V660H636C605.736 659.379 583.274 636.607 582 606C583.274 580.373 605.722 557.586 636 558H786C811.553 557.586 833.985 580.373 834 606V798C833.985 823.184 811.553 846 786 846H414Z" fill="white"/>
</svg>
