<svg width="46" height="52" viewBox="0 0 46 52" fill="none" xmlns="http://www.w3.org/2000/svg"><g clip-path="url(#clip0_1_729)"><path d="M4.14021 0H31.2135L45.9894 14.5921L46.0002 47.8854C46.0002 49.6826 43.6713 52.0449 41.8602 52.0449H4.14021C2.32906 52.0449 0.0559082 49.7111 0.0559082 47.914V4.10447C0.0559082 2.30735 2.32923 0 4.14021 0Z" fill="#E94560"></path><path d="M45.9421 14.6376H34.5063C32.6951 14.6376 31.2253 13.1804 31.2253 11.3848V0.0324707L45.9421 14.6376Z" fill="#D01534"></path><path d="M25.4733 23.7973L25.448 23.8248C25.2899 23.9965 25.0325 24.2762 24.8243 24.4742L23.0318 26.1795L21.3079 24.4048C21.1494 24.2417 20.9587 24.0256 20.8292 23.879L20.8074 23.8542L20.8067 23.8535C19.6448 22.5368 18.1487 21.0114 16.2559 21.0114C14.931 21.0114 13.6528 21.5303 12.6505 22.5132L12.6504 22.5133C11.6545 23.4898 11.0713 24.7815 10.9973 26.1551L25.4733 23.7973ZM25.4733 23.7973C25.4733 23.7972 25.4734 23.7971 25.4735 23.797C26.7573 22.4036 28.1996 21.0114 29.9145 21.0114C31.2394 21.0114 32.5177 21.5302 33.52 22.5131C34.5158 23.4897 35.099 24.7816 35.173 26.1553C35.2692 27.9469 34.6285 29.2061 33.9182 30.281C33.0646 31.5724 30.608 34.3607 27.8874 37.0289C26.5048 38.3849 25.2661 39.4981 24.3045 40.2623L24.3045 40.2623C23.7408 40.7103 23.3533 40.9735 23.1019 41.125C22.8514 40.9717 22.4662 40.7071 21.903 40.2591C20.9369 39.4907 19.6923 38.3741 18.3031 37.0165C15.5547 34.3307 13.0914 31.548 12.2511 30.2792L12.251 30.279C11.245 28.7604 10.9228 27.5446 10.9973 26.1555L25.4733 23.7973Z" fill="white" stroke="white" stroke-width="5"></path></g><defs><clipPath id="clip0_1_729"><rect width="46" height="52" fill="white"></rect></clipPath></defs></svg>